<svg viewBox="0 0 300 158.4398" width="5000px" height="2640.6634012858076px" xmlns="http://www.w3.org/2000/svg" xmlns:xlink="http://www.w3.org/1999/xlink" preserveAspectRatio="none"><defs></defs><style>.companyNameTvS3O-4Ak {fill:#71db77;fill-opacity:1;}.icon1TvS3O-4Ak {fill:#71db77;fill-opacity:1;}.icon2TvS3O-4Ak {fill:#c8c8c8;fill-opacity:1;}.icon3TvS3O-4Ak {fill:#5c5c5c;fill-opacity:1;}</style><g opacity="1" transform="rotate(0 0 88.03719999999998)">
        <svg width="300" height="70.4026" x="0" y="88.03719999999998" version="1.1" preserveAspectRatio="none" viewBox="2.44 -32.8 141.64 33.24">
          <g transform="matrix(1 0 0 1 0 0)" class="companyNameTvS3O-4Ak"><path transform="" stroke="none" d="M2.44 0L2.44-32.40L12.72-32.40Q21.12-32.40 21.12-23.08L21.12-23.08Q21.12-18.16 18.72-16.10Q16.32-14.04 12.04-14.04L12.04-14.04L9-14.04L9 0L2.44 0ZM9-18.68L11.36-18.68Q13.48-18.68 14.20-19.68Q14.92-20.68 14.92-23.20L14.92-23.20Q14.92-24.84 14.68-25.78Q14.44-26.72 13.66-27.24Q12.88-27.76 11.32-27.76L11.32-27.76L9-27.76L9-18.68Z"></path>
    <path transform="" stroke="none" d="M24.48 0L24.48-32.40L34.76-32.40Q43.16-32.40 43.16-23.08L43.16-23.08Q43.16-18.16 40.76-16.10Q38.36-14.04 34.08-14.04L34.08-14.04L31.04-14.04L31.04 0L24.48 0ZM31.04-18.68L33.40-18.68Q35.52-18.68 36.24-19.68Q36.96-20.68 36.96-23.20L36.96-23.20Q36.96-24.84 36.72-25.78Q36.48-26.72 35.70-27.24Q34.92-27.76 33.36-27.76L33.36-27.76L31.04-27.76L31.04-18.68Z"></path>
    <path transform="" stroke="none" d="M46.52 0L46.52-32.40L60.64-32.40L60.64-27.84L53.08-27.84L53.08-19.24L58.92-19.24L58.92-14.64L53.08-14.64L53.08-4.48L60.72-4.48L60.72 0L46.52 0Z"></path>
    <path transform="" stroke="none" d="M72.60 0L72.60-7.60L62.76-7.60L62.76-12.40L71.20-32.40L78.36-32.40L78.36-12.28L81.52-12.28L81.52-7.60L78.36-7.60L78.36 0L72.60 0ZM67.64-12.28L72.60-12.28L72.60-26.04L67.64-12.28Z"></path>
    <path transform="" stroke="none" d="M84.68 0L84.68-32.40L89.28-32.40L96.48-15.56L96.48-32.40L101.96-32.40L101.96 0L97.52 0L90.32-17.92L90.32 0L84.68 0Z"></path>
    <path transform="" stroke="none" d="M111.08 0L111.08-12.84L104.76-32.40L110.96-32.40L114.44-21L117.64-32.40L123.68-32.40L117.44-12.84L117.44 0L111.08 0Z"></path>
    <path transform="" stroke="none" d="M135 0.44Q129.84 0.44 127.68-2.34Q125.52-5.12 125.52-10.36L125.52-10.36L125.52-21.96Q125.52-27.32 127.66-30.06Q129.80-32.80 135-32.80L135-32.80Q139.96-32.80 142.02-30.38Q144.08-27.96 144.08-23.44L144.08-23.44L144.08-20.72L137.68-20.72L137.68-23.72Q137.68-25.16 137.54-26.04Q137.40-26.92 136.82-27.50Q136.24-28.08 135.04-28.08L135.04-28.08Q133.24-28.08 132.72-26.92Q132.20-25.76 132.20-23.52L132.20-23.52L132.20-8.80Q132.20-6.52 132.80-5.40Q133.40-4.28 135.04-4.28L135.04-4.28Q136.72-4.28 137.20-5.42Q137.68-6.56 137.68-8.80L137.68-8.80L137.68-11.96L144.08-11.96L144.08-9.28Q144.08-4.64 142.04-2.10Q140 0.44 135 0.44L135 0.44Z"></path>
    </g>
        </svg>
      </g><g opacity="1" transform="rotate(0 90 0)">
        <svg width="120" height="56.7472" x="90" y="0" version="1.1" preserveAspectRatio="none" viewBox="0.5292271971702576 3.597412109375 11.64144802093506 5.505157470703125">
          <g transform="matrix(1 0 0 1 0 0)" class="icon1TvS3O-4Ak"><g transform="translate(0,-284.29998)"><path style="" d="m 2.9892918,287.8978 a 0.36431659,0.36431659 0 0 0 -0.3481916,0.3638 v 0.28164 a 2.1961389,2.1961389 0 0 0 -0.4357688,-0.29973 1.145436,1.145436 0 0 0 -1.65655619,1.22577 3.5538634,3.5538634 0 0 0 2.11349169,2.62051 1.145436,1.145436 0 0 0 0.7873999,0.87643 9.8546831,9.8546831 0 0 0 5.7996666,0 1.145436,1.145436 0 0 0 0.7876646,-0.87643 3.5538634,3.5538634 0 0 0 2.114021,-2.62051 1.145436,1.145436 0 0 0 -1.657615,-1.22577 2.1961389,2.1961389 0 0 0 -0.435239,0.29973 v -0.28164 a 0.36431659,0.36431659 0 0 0 -0.4558774,-0.35243 12.907249,12.907249 0 0 1 -6.5050458,0 0.36431659,0.36431659 0 0 0 -0.10795,-0.0114 z m -1.3316479,0.42323 a 0.93754915,0.93754915 0 0 1 0.4516438,0.10645 1.988252,1.988252 0 0 1 0.5318125,0.40566 v 3.01997 a 3.3459764,3.3459764 0 0 1 -1.88780207,-2.42207 0.93754915,0.93754915 0 0 1 0.90434577,-1.11001 z m 9.3265621,5.3e-4 a 0.93754915,0.93754915 0 0 1 0.962819,1.10949 3.3459764,3.3459764 0 0 1 -1.88886,2.42208 v -3.01998 a 1.9882521,1.9882521 0 0 1 0.531812,-0.40566 0.93754915,0.93754915 0 0 1 0.394229,-0.10593 z m -5.0762954,1.0914 h 0.8831791 v 0.81701 h 0.8165042 v 0.88212 H 6.7910897 v 0.817 H 5.9079106 v -0.817 h -0.815975 v -0.88212 h 0.815975 z"></path></g></g>
        </svg>
      </g></svg>