<?xml version="1.0" standalone="no"?>
<!DOCTYPE svg PUBLIC "-//W3C//DTD SVG 20010904//EN"
 "http://www.w3.org/TR/2001/REC-SVG-20010904/DTD/svg10.dtd">
<svg version="1.0" xmlns="http://www.w3.org/2000/svg"
 width="1498.000000pt" height="1498.000000pt" viewBox="0 0 1498.000000 1498.000000"
 preserveAspectRatio="xMidYMid meet">
<metadata>
Created by potrace 1.16, written by Peter Selinger 2001-2019
</metadata>
<g transform="translate(0.000000,1498.000000) scale(0.100000,-0.100000)"
fill="#000000" stroke="none">
<path d="M7395 12030 c-6 -18 -13 -21 -39 -17 -21 3 -38 -1 -52 -12 -19 -16
-57 -18 -139 -10 -38 4 -145 -17 -167 -33 -21 -14 -32 -16 -53 -8 -41 16 -120
12 -135 -5 -7 -9 -21 -13 -31 -10 -14 5 -19 1 -19 -11 0 -9 -16 -32 -36 -50
-29 -28 -43 -34 -79 -34 -37 0 -48 -5 -61 -26 -15 -22 -22 -25 -51 -19 -24 4
-33 3 -31 -7 2 -8 -5 -12 -17 -10 -99 15 -118 15 -112 -1 4 -11 -2 -17 -22
-22 -21 -4 -30 -14 -34 -35 -5 -21 -13 -30 -36 -35 -20 -4 -28 -11 -24 -21 3
-8 -1 -14 -9 -14 -8 0 -23 -9 -33 -20 -12 -13 -25 -18 -37 -14 -10 3 -24 1
-31 -4 -7 -6 -23 -12 -37 -14 -17 -2 -25 -10 -26 -23 -2 -38 -4 -43 -23 -48
-11 -2 -21 -15 -23 -28 -2 -18 -10 -25 -30 -27 -20 -2 -28 -9 -28 -23 0 -12
-11 -24 -27 -30 -16 -7 -38 -16 -50 -21 -11 -6 -26 -7 -32 -4 -6 4 -11 1 -11
-7 0 -18 -22 -27 -48 -21 -24 7 -52 -20 -52 -50 0 -24 -28 -56 -49 -56 -6 0
-36 -25 -66 -55 -36 -37 -62 -55 -78 -55 -14 0 -25 -6 -24 -12 1 -48 -3 -57
-35 -60 -25 -2 -32 -7 -30 -20 3 -17 -8 -22 -35 -19 -7 1 -13 -2 -13 -8 0 -5
6 -11 13 -14 10 -4 10 -7 0 -18 -7 -7 -13 -21 -13 -30 0 -18 -66 -91 -98 -108
-16 -8 -19 -19 -16 -49 3 -33 -1 -43 -31 -71 -19 -18 -35 -38 -35 -45 0 -6
-19 -20 -42 -31 -25 -12 -49 -33 -60 -52 -16 -31 -16 -33 0 -42 14 -8 15 -13
5 -30 -7 -12 -13 -29 -13 -40 0 -10 -9 -25 -20 -32 -16 -12 -20 -28 -23 -94
-2 -44 -10 -91 -17 -105 -10 -17 -15 -67 -17 -155 -5 -215 -12 -298 -28 -332
-14 -30 -14 -35 -1 -55 9 -13 12 -27 7 -37 -5 -9 -9 -49 -9 -89 -1 -40 -4 -77
-7 -82 -13 -21 -26 -113 -29 -205 -2 -55 -6 -112 -10 -127 -17 -61 -21 -343
-7 -423 25 -135 27 -124 -17 -123 -21 0 -56 -9 -78 -20 -75 -40 -106 -115
-135 -337 -37 -272 -38 -251 19 -420 28 -82 53 -172 57 -200 18 -143 58 -278
116 -393 46 -91 59 -127 59 -163 0 -63 46 -152 116 -222 63 -63 99 -78 184
-74 l54 2 9 -45 c4 -25 12 -67 17 -95 50 -290 65 -359 107 -495 15 -47 26 -94
25 -104 0 -11 10 -32 23 -48 14 -16 25 -36 25 -45 0 -8 14 -45 30 -83 17 -38
30 -76 30 -85 0 -9 18 -43 40 -76 l41 -59 0 -138 c-1 -401 -44 -616 -145 -731
-12 -13 -58 -48 -103 -78 -46 -29 -89 -63 -96 -73 -7 -11 -42 -33 -78 -50 -35
-16 -102 -50 -149 -75 -47 -24 -90 -45 -97 -45 -7 0 -27 -15 -45 -33 -54 -53
-109 -91 -193 -132 -76 -37 -197 -111 -293 -177 -44 -30 -121 -75 -262 -150
-41 -23 -82 -46 -90 -53 -8 -7 -71 -40 -140 -74 -69 -34 -156 -80 -195 -102
-108 -63 -213 -118 -285 -148 -64 -27 -242 -82 -310 -96 -44 -9 -111 -47 -159
-90 -35 -32 -64 -50 -171 -108 -61 -33 -197 -87 -220 -87 -10 0 -83 -23 -162
-51 -277 -99 -344 -120 -447 -140 -108 -21 -164 -43 -192 -75 -9 -11 -33 -52
-54 -92 -36 -70 -97 -138 -115 -127 -28 17 13 -44 87 -130 455 -533 982 -998
1573 -1390 705 -467 1489 -811 2335 -1024 313 -79 763 -155 1110 -188 276 -26
1096 -26 1370 0 1753 169 3362 921 4595 2148 234 233 550 589 550 619 0 19
-58 72 -110 102 -25 15 -115 52 -200 83 -194 71 -272 106 -385 174 -202 121
-245 143 -379 187 -78 26 -193 72 -256 103 -122 59 -150 72 -270 120 -90 36
-148 65 -260 132 -47 28 -121 64 -165 81 -121 44 -330 148 -419 207 -109 72
-148 90 -223 106 -58 12 -125 36 -233 83 -19 8 -53 30 -75 47 -22 18 -78 49
-125 70 -47 21 -104 46 -127 56 -23 11 -46 19 -50 19 -4 1 -45 47 -90 104 -94
118 -174 179 -249 191 -61 9 -71 -3 -34 -43 31 -34 28 -38 -17 -21 -20 7 -24
12 -14 18 9 6 4 10 -16 14 -15 3 -29 4 -31 2 -2 -2 12 -25 31 -52 66 -92 99
-173 117 -288 11 -64 7 -504 -5 -575 -2 -14 -7 -65 -10 -115 -4 -49 -14 -110
-22 -135 -19 -59 -124 -243 -173 -306 -22 -27 -47 -62 -56 -79 -73 -132 -370
-419 -569 -550 -165 -109 -523 -301 -630 -339 -70 -25 -209 -57 -275 -62 -30
-3 -66 -9 -80 -14 -14 -5 -54 -12 -90 -15 -36 -2 -83 -12 -105 -20 -22 -8 -54
-14 -72 -15 -18 0 -44 -5 -58 -12 -19 -8 -34 -8 -62 0 -31 10 -42 9 -63 -5
-30 -20 -184 -23 -240 -5 -19 6 -66 13 -105 16 -38 3 -90 12 -114 21 -51 18
-131 98 -131 130 0 11 -5 26 -11 32 -13 13 -4 33 17 33 22 0 17 27 -10 52 -13
13 -26 38 -28 56 -4 28 -1 35 17 42 17 7 21 14 18 34 -4 20 -1 26 12 26 11 0
15 5 12 14 -9 23 21 40 64 37 43 -3 49 7 21 32 -21 19 -43 22 -58 7 -5 -5 -35
-6 -66 -3 -62 6 -79 24 -54 52 9 10 13 26 9 39 -6 23 10 31 23 11 4 -7 22 -9
45 -6 22 3 42 1 45 -5 4 -6 10 -5 15 3 6 10 -4 20 -39 35 -43 20 -49 20 -71 6
-19 -11 -26 -12 -29 -3 -2 7 -13 21 -24 31 -19 17 -19 20 -4 41 24 35 19 57
-16 75 -18 9 -35 20 -38 24 -3 4 -18 13 -34 21 -37 18 -34 35 6 31 17 -1 35 3
39 10 6 10 15 10 40 1 31 -12 31 -12 25 17 -5 25 -2 30 15 30 14 0 21 -9 26
-30 3 -20 12 -30 23 -30 10 0 23 -6 29 -14 10 -11 7 -17 -11 -30 -21 -15 -21
-17 -5 -33 13 -13 20 -14 29 -5 7 7 25 12 41 12 26 0 29 -2 23 -26 -6 -21 -3
-27 14 -31 19 -5 20 -11 15 -44 -4 -25 -3 -39 4 -39 6 0 14 -14 19 -32 6 -25
15 -34 41 -40 21 -6 39 -21 53 -43 32 -56 75 -36 49 22 -16 35 -4 44 44 33 26
-6 44 -5 52 2 20 16 43 2 43 -27 0 -15 6 -25 14 -25 23 0 31 22 13 35 -24 17
-21 25 7 25 24 0 40 -14 41 -35 1 -5 6 -21 12 -35 6 -14 14 -36 17 -50 3 -14
19 -33 37 -44 31 -18 33 -18 46 -1 7 11 13 22 13 27 0 4 9 8 21 8 12 0 23 8
26 20 3 12 14 20 25 20 24 0 88 37 88 51 0 5 -9 14 -20 21 -11 7 -20 18 -20
24 0 10 45 37 83 48 27 8 22 54 -8 68 -29 13 -31 25 -9 49 13 14 21 16 35 8
11 -5 19 -16 19 -23 0 -17 28 -42 58 -50 29 -9 85 28 78 52 -15 53 -17 84 -7
78 6 -4 11 -16 11 -27 0 -31 56 -27 64 5 12 48 -12 68 -54 46 -15 -8 -21 -6
-29 8 -6 11 -6 24 0 33 5 7 9 24 9 37 0 12 7 25 15 28 22 9 18 23 -10 34 -14
5 -30 21 -35 35 -6 16 -17 25 -31 25 -21 0 -22 1 -4 20 14 15 15 23 6 34 -11
13 -9 31 11 72 5 11 8 34 6 50 -2 23 -10 31 -35 39 -18 6 -35 14 -39 18 -10
10 45 67 65 68 17 1 -16 13 -61 23 -37 8 -36 34 2 47 17 6 30 18 30 27 0 9 10
26 21 39 19 19 20 25 9 38 -12 14 -11 18 1 26 12 8 11 11 -3 20 -24 14 -23 44
3 60 18 12 19 18 9 43 -9 24 -8 32 6 47 10 11 27 19 39 19 32 0 43 18 38 60
-5 36 -3 40 21 46 20 5 25 11 21 25 -3 10 -1 28 5 39 9 16 8 25 0 35 -12 15
-3 22 53 39 10 3 17 15 17 30 0 27 33 56 62 56 12 0 15 5 11 15 -8 22 25 55
54 55 23 0 33 6 74 42 10 10 23 18 27 18 5 0 17 9 28 21 15 16 16 24 6 39 -7
11 -12 24 -12 28 0 8 70 56 118 81 13 7 27 23 32 37 5 13 24 33 42 44 18 11
46 38 62 60 16 22 38 42 47 45 10 4 21 15 24 25 3 11 26 36 50 56 41 33 94
118 82 130 -3 3 -20 -8 -38 -25 -17 -17 -38 -31 -44 -31 -7 0 -24 -6 -38 -13
-35 -18 -84 -10 -90 14 -6 23 -25 25 -34 2 -4 -10 2 -23 17 -35 20 -16 21 -21
10 -48 -11 -26 -16 -29 -39 -22 -14 4 -52 7 -84 7 -31 0 -57 3 -57 8 0 4 -7 7
-15 7 -12 0 -10 -5 5 -20 25 -25 20 -34 -31 -61 -56 -28 -74 -23 -54 15 17 32
12 66 -10 66 -7 0 -21 3 -30 6 -9 4 -15 2 -13 -4 4 -13 -51 -74 -61 -67 -5 2
-37 8 -72 11 -35 3 -74 13 -87 22 -23 15 -25 15 -38 -2 -8 -12 -27 -18 -56
-19 -41 -2 -43 -1 -44 28 0 17 4 39 9 50 7 13 6 20 -2 23 -6 2 -11 13 -11 24
0 17 -4 19 -22 13 -13 -4 -41 -9 -63 -12 l-40 -5 34 36 34 35 -31 30 c-18 16
-32 34 -32 40 0 6 -7 11 -15 11 -17 0 -38 43 -24 48 24 9 89 83 89 101 0 31
19 35 51 12 15 -11 34 -21 41 -21 18 1 54 31 62 54 5 15 13 18 46 13 22 -3 43
-1 46 5 3 5 16 7 28 4 11 -3 28 -1 36 4 12 8 13 13 3 29 -8 13 -9 22 -3 26 14
9 32 -4 24 -17 -4 -7 -2 -8 5 -4 6 4 9 15 6 25 -3 9 4 35 14 57 18 35 18 41 4
56 -14 16 -14 18 1 24 9 3 13 10 10 15 -3 5 -1 9 4 9 6 0 8 9 5 20 -4 13 -10
17 -17 12 -6 -4 -17 -7 -23 -6 -7 1 -17 2 -22 3 -5 0 -12 9 -15 19 -8 22 -28
55 -46 77 -10 12 -23 15 -50 10 -23 -4 -46 -1 -65 9 -17 9 -46 16 -65 16 -28
0 -42 8 -77 47 l-43 46 40 18 c22 10 40 25 40 33 0 10 6 13 15 10 8 -4 15 -1
15 5 0 6 -12 16 -26 21 -14 6 -22 15 -19 21 4 5 12 8 18 6 7 -2 19 2 28 10 15
13 67 25 182 42 26 4 53 13 59 19 7 7 30 12 51 12 29 0 56 11 102 41 35 22 66
47 69 55 5 12 67 44 87 44 5 0 14 -11 19 -24 6 -17 16 -24 34 -22 15 0 26 7
26 15 0 10 13 12 55 9 44 -4 59 -1 75 14 22 21 26 43 9 53 -5 4 -14 18 -19 31
-5 13 -20 28 -34 33 -13 5 -26 21 -30 35 -9 37 -41 51 -85 38 -92 -28 -184
-36 -249 -22 -20 5 -84 18 -142 30 -58 13 -127 29 -154 36 -27 8 -60 14 -72
14 -13 0 -28 9 -34 20 -8 16 -8 20 4 20 11 0 13 6 6 29 -8 27 -7 29 23 27 24
-1 34 5 41 20 14 31 70 48 167 49 94 2 109 7 109 36 0 12 5 19 13 17 6 -3 12
-10 12 -16 0 -18 21 -33 38 -27 9 4 15 17 14 33 -2 27 -2 27 68 27 l70 0 -2
39 c-4 52 -23 73 -23 25 0 -24 -5 -36 -14 -36 -8 0 -12 7 -9 16 3 12 2 12 -7
-1 -18 -30 -26 -21 -28 35 -1 28 -4 61 -6 72 -2 11 -5 23 -5 26 -1 4 -11 10
-23 14 -25 8 -34 11 -45 15 -14 5 -28 8 -51 9 -13 0 -20 6 -17 11 3 6 -1 10
-10 10 -10 0 -4 11 20 34 19 19 35 36 35 39 0 2 -17 2 -38 0 -27 -2 -43 1 -52
12 -12 15 -11 16 13 19 6 0 16 11 22 24 5 12 13 22 17 22 5 0 8 6 8 13 0 17
45 57 64 57 8 0 17 7 20 16 5 14 12 10 39 -18 51 -56 67 -80 67 -105 0 -24 15
-31 23 -10 5 14 67 -49 67 -70 0 -7 5 -13 11 -13 5 0 7 -4 4 -10 -3 -5 5 -22
19 -37 15 -15 26 -31 26 -36 0 -4 4 -5 10 -2 5 3 25 -6 44 -22 23 -18 31 -30
24 -34 -8 -5 -2 -12 15 -20 15 -7 27 -16 27 -21 0 -5 20 -28 45 -50 25 -23 45
-47 45 -53 0 -7 11 -23 24 -36 13 -13 26 -34 30 -46 9 -27 34 -30 43 -5 4 9
15 23 25 30 24 17 23 49 -2 62 -22 12 -17 35 6 26 8 -3 14 -1 14 4 0 6 6 10
14 10 28 0 26 19 -4 36 -16 10 -30 22 -30 27 0 4 5 5 11 2 6 -4 26 -4 46 0 35
6 35 7 14 21 -11 8 -29 14 -38 12 -13 -2 -17 3 -16 17 2 13 -9 29 -30 44 -17
13 -24 21 -13 17 15 -5 17 -2 13 16 -4 12 -1 28 4 35 8 9 1 21 -27 48 -20 19
-34 38 -31 41 4 4 2 15 -3 25 -7 12 -7 20 0 24 17 10 11 25 -9 25 -22 0 -36
26 -18 34 9 3 8 7 -3 15 -13 9 -12 12 4 24 18 13 16 15 -28 21 -45 7 -46 8
-44 41 1 18 -4 41 -12 50 -10 12 -10 19 -2 27 18 18 14 40 -5 36 -10 -2 -18
-8 -18 -15 0 -22 -14 -24 -25 -4 -6 12 -17 21 -25 21 -15 0 -21 31 -8 44 17
16 11 36 -10 32 -12 -2 -16 -1 -9 1 17 6 15 20 -5 27 -14 6 -15 9 -3 16 11 7
12 11 0 24 -7 9 -10 19 -7 23 10 10 -11 40 -32 46 -17 4 -19 0 -18 -41 1 -34
5 -46 19 -50 20 -5 23 -17 7 -27 -6 -4 -21 3 -34 15 -20 19 -35 23 -92 22 -37
0 -80 -5 -95 -11 -15 -6 -36 -7 -47 -3 -23 8 -91 95 -91 115 0 8 -11 22 -25
31 -14 9 -25 12 -25 7 0 -5 -13 -12 -30 -16 -42 -9 -50 -43 -16 -72 15 -13 36
-23 47 -23 10 0 19 -4 19 -9 0 -5 9 -11 20 -14 11 -3 23 -13 26 -24 3 -10 16
-38 29 -63 16 -32 24 -67 27 -120 l4 -75 -36 0 c-19 1 -47 6 -61 12 -57 25
-159 45 -173 34 -8 -7 -23 -7 -42 -2 -16 4 -39 5 -50 1 -11 -5 -27 -4 -35 1
-11 7 -10 9 4 9 10 0 16 4 12 10 -4 6 -15 6 -30 0 -25 -10 -27 -8 -29 20 -1 8
-8 16 -16 17 -8 1 -37 5 -64 8 -33 5 -56 14 -72 32 -21 23 -22 28 -10 52 7 14
12 42 11 63 -3 35 -2 36 41 47 42 11 61 31 29 31 -20 0 -19 19 1 41 12 14 22
16 40 9 15 -6 24 -6 24 0 0 6 -9 10 -21 10 -12 0 -17 4 -14 11 4 6 1 9 -6 7
-17 -3 -71 50 -64 63 4 5 13 9 22 9 9 0 13 6 10 15 -5 11 0 13 22 9 16 -4 32
-1 35 5 4 6 2 11 -4 11 -16 0 -80 61 -80 77 0 7 -11 13 -27 14 -24 0 -26 2
-12 11 15 11 15 13 -5 31 -21 18 -21 18 0 14 17 -4 21 1 23 35 2 33 -2 40 -24
48 -35 13 -30 44 8 48 27 3 28 6 26 50 -1 30 -9 55 -22 69 -15 17 -18 31 -14
56 3 20 0 40 -6 47 -8 9 -8 11 -1 7 12 -7 24 34 24 84 0 21 5 29 18 30 15 0
15 1 -2 8 -14 5 -16 10 -8 15 16 10 15 26 -2 26 -8 0 -17 7 -20 16 -3 9 -11
12 -18 8 -8 -5 -9 -2 -3 12 16 40 17 64 1 79 -9 9 -19 14 -24 12 -10 -7 -9 99
1 109 14 15 7 24 -20 24 -27 1 -27 1 -9 15 11 8 15 15 8 15 -6 0 -9 7 -6 15 4
8 12 15 20 15 21 0 17 18 -6 25 -11 4 -18 11 -14 16 3 6 12 8 20 5 8 -3 14 -1
14 4 0 6 -9 10 -20 10 -11 0 -20 4 -20 10 0 5 6 7 14 4 8 -3 17 -1 20 4 3 6
16 8 28 4 14 -3 19 -2 14 6 -5 8 0 12 13 12 11 0 22 4 25 9 3 5 15 7 26 4 11
-3 20 0 20 6 0 6 -6 11 -14 11 -11 0 -9 7 7 24 17 20 25 22 36 13 12 -10 12
-13 -3 -15 -26 -5 -12 -27 15 -24 13 2 36 3 52 3 17 0 27 5 27 14 0 8 8 19 19
24 27 15 34 51 10 51 -10 0 -19 5 -19 10 0 17 29 11 49 -9 11 -11 28 -17 38
-15 17 5 19 -1 19 -49 -1 -42 -4 -53 -13 -45 -6 5 -9 17 -6 25 4 11 2 14 -5 9
-17 -10 -8 -48 13 -60 13 -8 19 -8 22 2 3 6 9 9 15 6 6 -4 5 -10 -3 -16 -11
-7 -11 -11 -2 -15 15 -6 7 -46 -16 -82 -8 -13 -16 -30 -17 -36 -1 -7 -5 -27
-9 -44 -7 -32 8 -44 19 -16 6 17 46 21 46 5 0 -6 16 -26 35 -46 19 -19 35 -44
35 -55 0 -14 10 -25 30 -32 41 -16 51 -54 20 -77 -19 -14 -22 -24 -17 -53 7
-47 94 -177 118 -177 10 0 23 -9 29 -19 10 -20 45 -37 66 -33 19 4 124 -47
130 -63 8 -20 31 -19 42 2 8 14 14 15 41 3 24 -9 41 -10 75 -1 25 6 51 9 58 7
7 -2 58 -7 112 -11 99 -6 100 -5 82 14 -21 23 -14 41 17 41 29 1 72 34 63 49
-4 6 -16 11 -27 11 -11 0 -34 13 -50 29 -29 29 -39 61 -18 61 5 0 3 13 -7 29
-11 19 -28 31 -50 35 -40 8 -64 33 -40 42 9 3 32 3 52 0 47 -9 132 21 109 38
-14 10 -13 18 10 69 l26 57 24 -18 c38 -27 38 -41 0 -79 -40 -40 -41 -43 -17
-43 9 0 29 -7 45 -15 19 -10 51 -13 106 -10 59 3 83 0 91 -10 16 -19 96 -49
109 -40 6 3 11 15 11 27 0 18 -22 45 -121 146 -19 21 -43 49 -52 64 -17 27
-63 53 -122 68 -105 27 -212 63 -224 75 -12 11 -12 19 -3 40 10 21 18 25 54
25 108 0 255 -71 355 -171 72 -72 91 -81 78 -39 -12 38 -74 98 -150 145 -57
36 -99 53 -190 75 -64 17 -136 30 -159 30 -56 0 -86 10 -86 26 0 8 -4 14 -10
14 -5 0 -10 8 -10 18 0 10 -6 24 -12 30 -10 10 -10 15 2 22 12 7 11 12 -5 29
-10 12 -16 22 -14 24 44 29 110 46 249 62 193 23 216 27 227 41 6 9 22 15 35
14 36 -3 45 1 18 9 -15 5 -24 14 -22 23 2 11 -7 18 -27 23 -16 3 -32 13 -35
21 -3 8 -14 14 -25 14 -11 0 -23 5 -26 10 -4 6 -14 10 -23 9 -40 -4 -73 2 -67
11 3 6 -5 10 -19 10 -13 0 -31 7 -40 15 -27 27 -67 37 -85 22 -10 -9 -52 -17
-106 -21 -90 -6 -261 -24 -301 -32 -11 -2 -33 -15 -47 -28 -26 -24 -29 -24
-61 -11 -31 13 -39 13 -83 -4 -26 -11 -61 -22 -76 -26 -15 -3 -25 -9 -22 -14
2 -5 -2 -11 -10 -15 -8 -3 -12 -11 -9 -19 3 -8 -2 -20 -11 -27 -13 -11 -15 -9
-15 9 0 11 -5 21 -11 21 -6 0 -9 -7 -5 -15 3 -9 -3 -19 -14 -25 -11 -6 -20 -8
-20 -6 0 3 -11 1 -25 -4 -17 -7 -25 -6 -25 1 0 6 -7 8 -16 5 -37 -14 -64 -18
-64 -8 0 5 16 13 36 16 21 4 34 12 31 19 -2 7 -8 12 -13 12 -5 1 -20 5 -33 9
-21 7 -22 10 -8 18 31 17 17 27 -17 13 -25 -11 -43 -12 -67 -5 -23 7 -35 7
-37 0 -2 -5 -12 -10 -22 -10 -15 0 -17 -5 -10 -36 l8 -36 -28 27 c-16 15 -28
37 -27 49 3 60 -3 77 -22 71 -13 -4 -24 1 -36 17 -15 22 -17 22 -29 6 -7 -10
-18 -18 -25 -18 -6 0 -11 -6 -11 -14 0 -18 -42 -15 -64 4 -14 11 -16 9 -16
-13 0 -13 -7 -31 -16 -38 -13 -11 -17 -10 -25 4 -10 16 -37 13 -50 -6 -4 -5
-12 -6 -18 -2 -22 13 8 34 43 30 26 -2 33 1 32 14 -2 23 -37 59 -43 44 -3 -7
-11 -13 -19 -13 -12 0 -12 4 -4 20 7 14 7 20 0 20 -5 0 -10 8 -11 18 0 14 -2
14 -9 -3 -7 -18 -8 -19 -15 -2 -4 9 -15 17 -24 17 -10 0 -24 11 -31 25 -7 14
-20 25 -29 25 -24 1 -51 45 -53 84 -1 30 -3 32 -16 20 -18 -18 -29 -10 -14 9
14 16 6 27 -20 27 -10 0 -18 7 -18 15 0 8 7 15 15 15 8 0 15 6 15 13 0 9 3 8
9 -2 7 -11 13 -8 26 13 21 31 21 31 -30 48 -47 16 -62 43 -19 34 35 -7 49 1
58 34 5 18 5 21 -3 11 -8 -12 -11 -9 -17 13 -7 27 6 46 31 46 6 0 3 -5 -5 -10
-12 -8 -9 -10 13 -10 43 0 70 17 58 38 -10 18 -42 23 -53 7 -4 -5 -14 -3 -25
7 -20 17 -103 31 -103 17 0 -5 5 -9 10 -9 6 0 10 -16 8 -35 -2 -40 -22 -46
-63 -19 -31 20 -42 48 -16 39 13 -4 20 0 24 14 3 11 0 22 -7 24 -8 3 -7 9 3
21 19 22 2 39 -39 39 -30 0 -39 10 -20 22 18 11 10 34 -17 49 -25 13 -26 15
-9 22 10 4 21 2 25 -3 3 -6 16 -13 29 -17 12 -4 22 -13 22 -21 0 -8 9 -17 21
-20 24 -8 39 3 20 14 -7 5 -12 22 -10 42 2 19 -3 44 -9 57 -11 18 -10 22 1 22
8 0 20 6 26 13 8 11 5 19 -14 37 -22 21 -26 48 -4 35 5 -3 6 0 3 8 -3 8 0 18
5 22 13 7 5 25 -10 25 -6 0 -7 -4 -4 -10 3 -5 2 -10 -3 -10 -6 0 -13 11 -16
24 -3 13 -16 26 -28 29 -30 8 -47 -4 -20 -14 12 -5 22 -15 22 -24 0 -8 5 -15
11 -15 13 0 5 -56 -11 -76 -20 -23 -33 -16 -16 8 23 32 20 41 -11 35 -17 -3
-36 0 -47 9 -11 8 -15 14 -10 14 6 0 15 -5 22 -12 9 -9 12 -5 12 19 0 25 -5
32 -22 35 -13 2 -21 8 -18 13 3 6 8 9 13 7 4 -1 7 3 7 9 0 5 8 9 18 7 9 -1 23
1 30 5 6 5 12 4 12 -1 0 -6 9 -8 20 -5 14 4 20 0 20 -11 0 -9 5 -16 10 -16 6
0 10 8 10 19 0 14 -10 20 -39 25 -21 3 -45 13 -52 23 -13 15 -12 16 9 10 18
-4 22 -2 18 8 -3 8 -1 17 4 20 15 9 12 25 -4 25 -8 0 -17 -7 -20 -16 -3 -8
-16 -15 -28 -14 -48 4 -68 0 -68 -15 0 -30 -43 -13 -52 20 -4 17 0 20 26 20
21 0 31 5 32 15 0 8 4 28 9 43 6 25 11 27 36 22 16 -4 29 -2 29 3 0 16 45 31
64 20 15 -9 17 -7 12 10 -4 10 -4 27 0 36 6 15 7 15 19 -1 7 -10 11 -21 9 -25
-3 -5 0 -8 5 -8 6 0 11 12 11 26 0 23 3 26 28 22 20 -3 33 2 47 18 15 18 23
20 44 13 15 -6 32 -18 39 -27 10 -14 14 -14 21 -3 5 7 17 11 27 7 14 -4 27 4
46 28 32 40 68 54 68 25 0 -30 38 -24 46 7 6 23 11 25 46 22 27 -3 37 0 34 9
-3 7 1 10 10 6 7 -3 14 -9 14 -13 0 -4 17 -15 38 -24 28 -12 31 -15 12 -14
-21 3 -25 -1 -27 -31 -6 -66 48 -86 72 -27 8 19 12 41 9 49 -4 11 6 17 33 22
21 4 43 11 49 16 6 5 39 12 73 15 71 8 92 24 32 24 -23 0 -41 5 -41 10 0 6 11
10 24 10 13 0 29 7 36 15 7 8 17 15 22 15 5 0 18 8 29 19 28 26 84 33 133 16
48 -17 66 -19 66 -6 0 5 -14 12 -30 16 -17 4 -28 11 -24 16 8 14 54 11 60 -5
4 -11 18 -13 59 -9 43 5 57 2 71 -12 14 -13 27 -16 62 -11 25 3 58 6 73 6 18
0 28 5 27 13 -4 17 74 10 88 -9 14 -18 37 -18 74 1 23 12 35 13 57 4 57 -23
150 -41 201 -40 46 2 109 -12 172 -36 8 -4 36 -7 62 -9 27 -1 55 -9 64 -18 8
-9 22 -16 30 -16 8 0 14 -7 14 -15 0 -18 36 -20 43 -2 3 8 10 5 21 -9 8 -12
28 -25 43 -29 32 -7 73 -42 73 -61 0 -7 15 -22 34 -33 25 -16 33 -27 29 -41
-3 -10 4 -32 16 -49 12 -16 21 -34 21 -39 0 -6 13 -23 29 -39 31 -31 49 -73
32 -73 -18 0 -12 -27 6 -34 14 -6 15 -9 4 -16 -11 -6 -10 -14 8 -38 11 -17 21
-41 21 -55 0 -13 8 -35 18 -48 27 -37 43 -77 32 -84 -18 -11 -10 -24 30 -47
46 -27 55 -42 35 -61 -12 -13 -10 -18 15 -41 34 -30 39 -56 11 -56 -16 0 -18
-4 -11 -32 5 -18 16 -60 24 -93 8 -33 15 -83 16 -111 0 -38 9 -69 40 -130 22
-44 40 -94 40 -112 0 -18 6 -63 14 -100 31 -150 37 -222 30 -352 -5 -106 -4
-138 9 -172 18 -50 37 -158 37 -212 0 -44 15 -76 35 -76 26 0 29 24 27 173 -2
81 2 184 9 229 11 79 40 148 61 148 6 0 8 12 4 31 -3 17 -1 40 6 52 6 11 11
46 11 77 0 30 4 63 9 74 7 12 6 22 -1 29 -15 15 -14 62 2 76 10 7 12 30 10 78
-3 38 -6 138 -8 223 -3 85 -7 167 -10 182 -5 19 -1 29 12 37 10 6 13 11 6 11
-16 0 -28 77 -13 95 19 22 33 354 16 389 -6 14 -4 23 8 31 8 7 13 14 10 18 -3
3 0 14 7 25 7 12 9 27 4 38 -8 19 -11 54 -16 169 -1 34 -9 72 -19 91 -10 17
-17 48 -16 68 1 20 -3 37 -8 39 -6 2 -1 16 11 32 19 27 20 31 5 55 -9 14 -23
34 -33 45 -9 11 -22 38 -29 60 -7 22 -18 47 -25 55 -7 8 -13 22 -13 30 -1 23
-7 44 -15 58 -5 8 -2 12 8 12 14 0 14 2 -2 19 -10 10 -31 26 -48 34 l-30 16
26 1 c14 0 29 3 32 7 10 9 -13 33 -32 33 -9 0 -23 5 -31 10 -12 8 -13 12 -2
19 10 6 7 10 -12 15 -17 4 -26 13 -26 25 0 12 -11 23 -27 29 l-28 10 30 1 c23
1 27 4 15 11 -8 5 -24 10 -36 10 -11 0 -53 21 -92 46 -54 36 -74 55 -83 81 -6
18 -22 39 -36 47 l-26 13 26 17 c14 10 25 26 24 37 -1 16 -7 18 -33 13 -35 -6
-52 9 -34 31 9 11 6 17 -17 31 -110 67 -134 86 -129 101 11 28 -24 84 -57 90
-17 3 -32 14 -34 24 -3 10 -15 21 -27 25 -11 4 -34 17 -49 30 -16 13 -35 24
-43 24 -13 0 -99 36 -171 72 -12 6 -24 20 -27 32 -3 12 -15 32 -27 45 -19 20
-29 23 -69 18 -42 -5 -51 -3 -71 19 -12 13 -28 24 -35 24 -7 0 -22 14 -34 31
-20 28 -26 30 -61 24 -32 -6 -44 -2 -72 19 -20 15 -47 26 -65 26 -17 0 -34 5
-37 11 -13 20 -55 30 -77 18 -16 -8 -31 -8 -62 2 -23 7 -49 11 -59 10 -9 -1
-34 6 -55 17 -34 18 -80 36 -125 49 -13 4 -20 -1 -24 -16 -7 -26 -27 -27 -50
-2 -10 10 -41 30 -70 44 -44 21 -55 23 -71 12 -14 -11 -46 -12 -135 -7 -64 4
-117 4 -117 -1 0 -14 -224 4 -242 20 -14 13 -17 12 -23 -7z m-843 -4532 c38
-22 48 -41 30 -54 -9 -7 -23 -9 -31 -6 -9 3 -12 1 -7 -7 5 -7 20 -9 39 -6 22
4 39 1 52 -10 19 -15 19 -16 -12 -10 -32 6 -32 6 -26 -29 5 -31 3 -36 -15 -36
-16 0 -20 -6 -18 -25 3 -21 1 -23 -15 -14 -13 6 -25 6 -38 -1 -29 -15 -39 -12
-46 10 -9 29 12 51 41 44 27 -7 31 1 10 22 -8 7 -16 19 -18 25 -2 7 -12 9 -26
5 -13 -4 -19 -12 -16 -18 5 -7 2 -8 -5 -4 -7 5 -18 1 -25 -10 -7 -9 -24 -18
-37 -19 -13 -1 -32 -6 -43 -10 -16 -7 -16 -4 5 33 17 30 31 42 47 42 15 0 26
9 32 26 9 22 13 24 25 14 10 -8 15 -9 15 -2 0 6 -5 14 -12 18 -8 5 -2 12 17
20 38 17 50 17 77 2z m3281 -3140 c61 -128 70 -212 40 -369 -16 -87 -17 -88
-42 -82 -43 10 -45 15 -12 29 34 14 34 34 1 34 -29 0 -33 17 -5 24 35 9 33 36
-2 36 l-28 0 25 13 c23 12 42 49 23 46 -4 -1 -17 -1 -28 0 -18 1 -18 2 4 14
35 17 36 33 4 42 l-28 7 25 10 c33 12 35 15 20 33 -9 11 -10 18 -1 29 9 10 8
16 -4 26 -11 9 -12 16 -5 25 8 9 8 15 0 20 -5 3 -10 17 -10 31 0 18 -5 24 -21
24 -19 0 -19 1 -5 16 17 17 22 39 7 30 -5 -4 -16 -3 -25 0 -12 5 -13 9 -3 20
22 25 36 14 70 -58z"/>
<path d="M10223 8265 c-51 -22 -55 -85 -6 -134 28 -29 43 -78 32 -107 -4 -12
-8 -96 -8 -188 -1 -137 1 -165 13 -160 29 11 85 249 89 376 2 121 -6 177 -31
205 -23 26 -43 28 -89 8z"/>
<path d="M9907 7833 c-3 -5 -8 -51 -11 -103 -14 -194 -17 -226 -28 -290 -6
-36 -11 -81 -12 -100 -1 -32 2 -35 29 -38 23 -2 41 7 77 38 56 49 148 197 156
252 5 42 -13 88 -35 88 -7 0 -13 4 -13 8 0 5 -18 15 -40 22 -27 9 -40 19 -39
29 3 27 -18 67 -45 84 -29 19 -33 20 -39 10z"/>
</g>
</svg>
